# Blender v2.82 (sub 7) OBJ File: 'goat.blend'
# www.blender.org
mtllib backLeggoat.mtl
o Body_Plane.008
v -1.365174 0.478687 0.317423
v -1.145847 0.503222 0.317423
v -1.365174 0.478687 0.096626
v -1.145847 0.503222 0.096626
v -1.409311 0.009856 0.328430
v -1.107667 0.009856 0.328430
v -1.409311 0.009856 0.107633
v -1.107667 0.009856 0.107633
v -1.196408 0.133242 0.328430
v -1.196408 0.133242 0.107633
v -1.400742 0.129508 0.328430
v -1.400742 0.129508 0.107633
v 1.785621 3.075477 0.279497
v 1.788002 3.233478 0.281452
v 1.788002 3.075477 0.281452
v 1.791409 3.233478 0.286550
v 1.791409 3.075477 0.286550
v 1.792605 3.233478 0.292563
v 1.833847 3.211433 0.292563
v 1.792605 3.075477 0.292563
v 1.807123 3.080060 0.298577
v 1.792303 3.075477 0.295629
v 1.791409 3.233478 0.298577
v 1.805369 3.080060 0.304359
v 1.791409 3.075477 0.298577
v 1.802520 3.080060 0.309688
v 1.789957 3.075477 0.301294
v 1.773825 3.233478 0.307975
v 1.770877 3.233478 0.307081
v 1.759766 3.221451 0.333907
v 1.765095 3.080060 0.321041
v 1.770877 3.075477 0.307081
v 1.768160 3.233478 0.305629
v 1.752029 3.087504 0.329772
v 1.759766 3.080060 0.318193
v 1.768160 3.075477 0.305629
v 1.736616 3.097521 0.332837
v 1.763825 3.233478 0.301294
v 1.751261 3.228894 0.309688
v 1.751261 3.080060 0.309688
v 1.763825 3.075477 0.301294
v 1.762373 3.233478 0.298577
v 1.748412 3.228894 0.304359
v 1.735547 3.221451 0.309688
v 1.724270 3.211433 0.314359
v 1.762373 3.075477 0.298577
v 1.721029 3.097521 0.303675
v 1.761176 3.233478 0.292563
v 1.763825 3.075477 0.283833
v -0.791649 1.246606 0.003575
v -1.268895 2.593881 0.003575
v -1.344840 0.479780 -0.321279
v -1.125513 0.504315 -0.321279
v -1.344840 0.479780 -0.100482
v -1.125513 0.504315 -0.100482
v -1.409311 0.009856 -0.321279
v -1.107667 0.009856 -0.321279
v -1.409311 0.009856 -0.100482
v -1.107667 0.009856 -0.100482
v -1.268895 2.593881 0.003575
v -1.196408 0.133242 -0.321279
v -1.196408 0.133242 -0.100482
v -1.400742 0.129508 -0.321279
v -1.400742 0.129508 -0.100482
v 1.782904 3.233478 -0.270894
v 1.785621 3.233478 -0.272346
v 1.788002 3.233478 -0.274301
v 1.788002 3.075477 -0.274301
v 1.802520 3.080060 -0.268287
v 1.791409 3.233478 -0.279399
v 1.792303 3.075477 -0.282347
v 1.851308 3.123653 -0.285412
v 1.792303 3.233478 -0.288478
v 1.792303 3.075477 -0.288478
v 1.788002 3.233478 -0.296524
v 1.779956 3.075477 -0.300825
v 1.773825 3.075477 -0.300825
v 1.765095 3.080060 -0.313890
v 1.765779 3.075477 -0.296524
v 1.763825 3.233478 -0.294143
v 1.761176 3.233478 -0.285412
v 1.746066 3.080060 -0.285412
v 1.761478 3.233478 -0.282347
v 1.746658 3.228894 -0.279399
v 1.761478 3.075477 -0.282347
v 1.762373 3.233478 -0.279399
v 1.748412 3.228894 -0.273616
v 1.763825 3.233478 -0.276682
v 1.765779 3.233478 -0.274301
vt 0.918956 0.555633
vt 0.894176 0.575892
vt 0.885182 0.561570
vt 0.887476 0.620238
vt 0.861961 0.590238
vt 0.795636 0.589604
vt 0.830625 0.599821
vt 0.787236 0.610491
vt 0.856860 0.573360
vt 0.825263 0.582819
vt 0.792340 0.478372
vt 0.827327 0.466456
vt 0.757276 0.489890
vt 0.894770 0.449534
vt 0.860604 0.450879
vt 0.334174 0.642037
vt 0.333274 0.644376
vt 0.332900 0.644091
vt 0.334917 0.642603
vt 0.333587 0.644727
vt 0.333435 0.647780
vt 0.334492 0.650069
vt 0.333081 0.648095
vt 0.332984 0.679383
vt 0.331994 0.681695
vt 0.332061 0.679278
vt 0.894176 0.044625
vt 0.918957 0.064884
vt 0.885182 0.058947
vt 0.887476 0.000280
vt 0.861961 0.030280
vt 0.795636 0.030913
vt 0.830625 0.020697
vt 0.825263 0.037698
vt 0.856860 0.047157
vt 0.827327 0.154062
vt 0.792340 0.142145
vt 0.860604 0.169638
vt 0.757276 0.130628
vt 0.894770 0.170984
vt 0.266973 0.650246
vt 0.267955 0.647886
vt 0.268326 0.648191
vt 0.918905 0.582776
vt 0.335538 0.643300
vt 0.335194 0.649459
vt 0.332464 0.681753
vt 0.918905 0.037742
vt 0.787236 0.010026
vt 0.266237 0.649654
vn 0.8118 0.5839 0.0000
vn 0.0000 -1.0000 0.0000
vn 0.0000 0.0000 1.0000
vn 0.0000 0.0000 -1.0000
vn -0.9974 0.0714 0.0000
vn -0.9949 0.1013 0.0000
vn 0.0006 -0.0316 -0.9995
vn -0.0034 0.0302 0.9995
vn 0.9908 -0.1354 0.0000
vn 0.2790 -0.9566 0.0846
vn 0.2571 -0.9565 0.1375
vn -0.1374 -0.9565 0.2572
vn -0.2571 0.9566 0.1374
vn -0.9875 0.1576 0.0000
vn 0.9822 -0.1877 0.0000
vn -0.2790 0.9566 0.0846
vn -0.1112 0.9938 0.0000
vn 0.0034 -0.0302 -0.9995
vn -0.0006 0.0316 0.9995
vn 0.2571 -0.9566 0.1374
vn -0.1374 -0.9566 0.2571
vn -0.2572 0.9566 0.1374
vn -0.2790 0.9565 0.0847
usemtl Material
s off
f 9/1/1 8/2/1 10/3/1
f 8/2/2 5/4/2 7/5/2
f 9/6/3 5/7/3 6/8/3
f 10/3/4 7/5/4 12/9/4
f 12/9/5 5/7/5 11/10/5
f 1/11/6 12/9/6 11/10/6
f 3/12/7 10/3/7 12/9/7
f 1/11/8 9/6/8 2/13/8
f 2/14/9 10/3/9 4/15/9
f 21/16/10 25/17/10 22/18/10
f 24/19/11 27/20/11 25/17/11
f 32/21/12 35/22/12 36/23/12
f 39/24/13 42/25/13 43/26/13
f 59/27/1 61/28/1 62/29/1
f 56/30/2 59/27/2 58/31/2
f 61/32/4 56/33/4 63/34/4
f 58/31/3 62/29/3 64/35/3
f 56/33/5 64/35/5 63/34/5
f 63/34/14 54/36/14 52/37/14
f 54/36/3 62/29/3 55/38/3
f 61/32/4 52/37/4 53/39/4
f 62/29/15 53/40/15 55/38/15
f 84/41/16 86/42/16 83/43/16
f 2/14/17 3/12/17 1/11/17
f 54/36/17 53/40/17 52/37/17
f 9/1/1 6/44/1 8/2/1
f 8/2/2 6/44/2 5/4/2
f 9/6/3 11/10/3 5/7/3
f 10/3/4 8/2/4 7/5/4
f 12/9/5 7/5/5 5/7/5
f 1/11/6 3/12/6 12/9/6
f 3/12/18 4/15/18 10/3/18
f 1/11/19 11/10/19 9/6/19
f 2/14/9 9/1/9 10/3/9
f 21/16/10 24/19/10 25/17/10
f 24/19/20 26/45/20 27/20/20
f 32/21/21 31/46/21 35/22/21
f 39/24/22 38/47/22 42/25/22
f 59/27/1 57/48/1 61/28/1
f 56/30/2 57/48/2 59/27/2
f 61/32/4 57/49/4 56/33/4
f 58/31/3 59/27/3 62/29/3
f 56/33/5 58/31/5 64/35/5
f 63/34/14 64/35/14 54/36/14
f 54/36/3 64/35/3 62/29/3
f 61/32/4 63/34/4 52/37/4
f 62/29/15 61/28/15 53/40/15
f 84/41/23 87/50/23 86/42/23
f 2/14/17 4/15/17 3/12/17
f 54/36/17 55/38/17 53/40/17
l 51 60
l 15 13
l 22 20
l 29 28
l 34 35
l 33 29
l 40 41
l 43 44
l 44 45
l 46 41
l 66 65
l 66 67
l 83 81
l 88 86
l 88 89
