# Blender v2.82 (sub 7) OBJ File: 'bush2.blend'
# www.blender.org
mtllib bush2.mtl
o Cube
v 1.000000 1.000000 -1.000000
v 1.000000 -1.000000 -1.000000
v 1.000000 1.000000 1.000000
v 1.000000 -1.000000 1.000000
v -1.000000 1.000000 -1.000000
v -1.000000 -1.000000 -1.000000
v -1.000000 1.000000 1.000000
v -1.000000 -1.000000 1.000000
v 1.200000 0.349537 -1.200000
v -1.200000 0.349537 1.200000
v 1.200000 0.349537 1.200000
v -1.200000 0.349537 -1.200000
v 1.200000 -0.328454 -1.200000
v 1.200000 -0.328454 1.200000
v -1.200000 -0.328454 -1.200000
v -1.200000 -0.328454 1.200000
v -1.200000 -1.200000 -0.311717
v 1.200000 1.200000 -0.311717
v -1.200000 1.200000 -0.311717
v 1.200000 -1.200000 -0.311717
v 1.300000 0.349537 -0.311717
v -1.300000 0.349537 -0.311717
v -1.300000 -0.328454 -0.311717
v 1.300000 -0.328454 -0.311717
v -1.200000 -1.200000 0.344141
v 1.200000 1.200000 0.344141
v 1.300000 0.349537 0.344141
v 1.300000 -0.328454 0.344141
v -1.200000 1.200000 0.344141
v 1.200000 -1.200000 0.344141
v -1.300000 0.349537 0.344141
v -1.300000 -0.328454 0.344141
v -0.382714 -1.200000 -1.200000
v -0.382714 1.200000 1.200000
v -0.382714 -1.200000 1.200000
v -0.382714 1.200000 -1.200000
v -0.382714 0.349537 -1.300000
v -0.382714 0.349537 1.300000
v -0.382714 -0.328454 1.300000
v -0.382714 -0.328454 -1.300000
v -0.382714 -1.300000 -0.311717
v -0.382714 1.300000 -0.311717
v -0.382714 -1.300000 0.344141
v -0.382714 1.300000 0.344141
v 0.308643 -1.200000 1.200000
v 0.308643 1.200000 -1.200000
v 0.308643 0.349537 -1.300000
v 0.308643 -0.328454 -1.300000
v 0.308643 1.300000 -0.311717
v 0.308643 1.300000 0.344141
v 0.308643 -1.200000 -1.200000
v 0.308643 1.200000 1.200000
v 0.308643 0.349537 1.300000
v 0.308643 -0.328454 1.300000
v 0.308643 -1.300000 -0.311717
v 0.308643 -1.300000 0.344141
vt 0.797839 0.668018
vt 0.875000 0.668018
vt 0.875000 0.750000
vt 0.797839 0.750000
vt 0.543692 0.922839
vt 0.625000 0.922839
vt 0.625000 1.000000
vt 0.543692 1.000000
vt 0.543692 0.163965
vt 0.625000 0.163965
vt 0.625000 0.250000
vt 0.543692 0.250000
vt 0.288580 0.668018
vt 0.375000 0.668018
vt 0.375000 0.750000
vt 0.288580 0.750000
vt 0.543692 0.668018
vt 0.625000 0.668018
vt 0.625000 0.750000
vt 0.543692 0.750000
vt 0.543692 0.413580
vt 0.625000 0.413580
vt 0.625000 0.500000
vt 0.543692 0.500000
vt 0.458943 0.413580
vt 0.458943 0.500000
vt 0.458943 0.668018
vt 0.458943 0.750000
vt 0.458943 0.163965
vt 0.458943 0.250000
vt 0.458943 0.922839
vt 0.458943 1.000000
vt 0.375000 0.922839
vt 0.375000 1.000000
vt 0.375000 0.163965
vt 0.375000 0.250000
vt 0.375000 0.413580
vt 0.375000 0.500000
vt 0.458943 0.586035
vt 0.375000 0.586035
vt 0.375000 0.081982
vt 0.458943 0.081982
vt 0.543692 0.081982
vt 0.543692 0.586035
vt 0.625000 0.586035
vt 0.288580 0.500000
vt 0.288580 0.586035
vt 0.625000 0.081982
vt 0.797839 0.500000
vt 0.875000 0.500000
vt 0.875000 0.586035
vt 0.797839 0.586035
vt 0.543692 0.000000
vt 0.625000 0.000000
vt 0.458943 0.000000
vt 0.375000 0.000000
vt 0.711420 0.586035
vt 0.711420 0.668018
vt 0.125000 0.586035
vt 0.202161 0.586035
vt 0.202161 0.668018
vt 0.125000 0.668018
vt 0.711420 0.500000
vt 0.125000 0.500000
vt 0.202161 0.500000
vt 0.458943 0.327161
vt 0.375000 0.327161
vt 0.375000 0.836420
vt 0.458943 0.836420
vt 0.543692 0.836420
vt 0.543692 0.327161
vt 0.625000 0.327161
vt 0.202161 0.750000
vt 0.125000 0.750000
vt 0.625000 0.836420
vt 0.711420 0.750000
vn -0.2288 0.9486 0.2185
vn -0.2290 0.2200 0.9482
vn -0.9532 0.2184 -0.2091
vn 0.2082 -0.9538 0.2168
vn 0.9511 0.2191 0.2177
vn 0.2083 0.2183 -0.9534
vn 0.1115 0.0000 -0.9938
vn 0.9932 0.0000 0.1161
vn -0.9937 0.0000 -0.1119
vn -0.1215 0.0000 0.9926
vn -0.2285 -0.2142 0.9497
vn -0.9546 -0.2126 -0.2086
vn 0.9525 -0.2133 0.2173
vn 0.2078 -0.2126 -0.9548
vn 0.9546 -0.2126 -0.2086
vn -0.9935 -0.1140 0.0000
vn -1.0000 0.0000 0.0000
vn 0.9937 0.0000 -0.1119
vn 0.9532 0.2184 -0.2091
vn 0.2075 -0.9558 -0.2082
vn -0.9932 0.1168 0.0000
vn -0.2281 0.9508 -0.2099
vn -0.9511 0.2191 0.2177
vn -0.9932 0.0000 0.1161
vn -0.9525 -0.2133 0.2173
vn 0.9935 -0.1140 0.0000
vn 1.0000 0.0000 0.0000
vn 0.9932 0.1168 0.0000
vn 0.1115 -0.9938 0.0000
vn -0.1215 0.9926 0.0000
vn 0.0000 1.0000 0.0000
vn -0.1215 -0.9926 0.0000
vn 0.0000 0.9937 -0.1119
vn -0.2281 -0.9508 -0.2099
vn -0.2285 -0.2142 -0.9497
vn 0.0000 -0.1140 0.9935
vn 0.0000 0.0000 1.0000
vn -0.1215 0.0000 -0.9926
vn -0.2290 0.2200 -0.9482
vn -0.2288 -0.9486 0.2185
vn 0.0000 0.1168 0.9932
vn 0.0000 0.9932 0.1161
vn 0.2082 0.9538 0.2168
vn 0.2083 0.2183 0.9534
vn 0.1115 0.0000 0.9938
vn 0.2078 -0.2126 0.9548
vn 0.2075 0.9558 -0.2082
vn 0.1115 0.9938 0.0000
vn 0.0000 -1.0000 0.0000
vn 0.0000 -0.9937 -0.1119
vn 0.0000 -0.1140 -0.9935
vn 0.0000 0.0000 -1.0000
vn 0.0000 0.1168 -0.9932
vn 0.0000 -0.9932 0.1161
usemtl Material
s off
f 44/1/1 29/2/1 7/3/1 34/4/1
f 38/5/2 34/6/2 7/7/2 10/8/2
f 22/9/3 19/10/3 5/11/3 12/12/3
f 56/13/4 30/14/4 4/15/4 45/16/4
f 27/17/5 26/18/5 3/19/5 11/20/5
f 47/21/6 46/22/6 1/23/6 9/24/6
f 48/25/7 47/21/7 9/24/7 13/26/7
f 28/27/8 27/17/8 11/20/8 14/28/8
f 23/29/9 22/9/9 12/12/9 15/30/9
f 39/31/10 38/5/10 10/8/10 16/32/10
f 35/33/11 39/31/11 16/32/11 8/34/11
f 17/35/12 23/29/12 15/30/12 6/36/12
f 30/14/13 28/27/13 14/28/13 4/15/13
f 51/37/14 48/25/14 13/26/14 2/38/14
f 2/38/15 13/26/15 24/39/15 20/40/15
f 25/41/16 32/42/16 23/29/16 17/35/16
f 32/42/17 31/43/17 22/9/17 23/29/17
f 13/26/18 9/24/18 21/44/18 24/39/18
f 9/24/19 1/23/19 18/45/19 21/44/19
f 51/46/20 2/38/20 20/40/20 55/47/20
f 31/43/21 29/48/21 19/10/21 22/9/21
f 36/49/22 5/50/22 19/51/22 42/52/22
f 10/53/23 7/54/23 29/48/23 31/43/23
f 16/55/24 10/53/24 31/43/24 32/42/24
f 8/56/25 16/55/25 32/42/25 25/41/25
f 20/40/26 24/39/26 28/27/26 30/14/26
f 24/39/27 21/44/27 27/17/27 28/27/27
f 21/44/28 18/45/28 26/18/28 27/17/28
f 55/47/29 20/40/29 30/14/29 56/13/29
f 42/52/30 19/51/30 29/2/30 44/1/30
f 49/57/31 42/52/31 44/1/31 50/58/31
f 17/59/32 41/60/32 43/61/32 25/62/32
f 46/63/33 36/49/33 42/52/33 49/57/33
f 6/64/34 33/65/34 41/60/34 17/59/34
f 6/36/35 15/30/35 40/66/35 33/67/35
f 45/68/36 54/69/36 39/31/36 35/33/36
f 54/69/37 53/70/37 38/5/37 39/31/37
f 15/30/38 12/12/38 37/71/38 40/66/38
f 12/12/39 5/11/39 36/72/39 37/71/39
f 25/62/40 43/61/40 35/73/40 8/74/40
f 53/70/41 52/75/41 34/6/41 38/5/41
f 50/58/42 44/1/42 34/4/42 52/76/42
f 26/18/43 50/58/43 52/76/43 3/19/43
f 11/20/44 3/19/44 52/75/44 53/70/44
f 14/28/45 11/20/45 53/70/45 54/69/45
f 4/15/46 14/28/46 54/69/46 45/68/46
f 1/23/47 46/63/47 49/57/47 18/45/47
f 18/45/48 49/57/48 50/58/48 26/18/48
f 41/60/49 55/47/49 56/13/49 43/61/49
f 33/65/50 51/46/50 55/47/50 41/60/50
f 33/67/51 40/66/51 48/25/51 51/37/51
f 40/66/52 37/71/52 47/21/52 48/25/52
f 37/71/53 36/72/53 46/22/53 47/21/53
f 43/61/54 56/13/54 45/16/54 35/73/54
o Cube.001
v -0.139320 -1.470981 0.134780
v -0.139320 -1.201420 0.134780
v -0.139320 -1.470981 -0.134781
v -0.139320 -1.201420 -0.134781
v 0.130241 -1.470981 0.134780
v 0.130241 -1.201420 0.134780
v 0.130241 -1.470981 -0.134781
v 0.130241 -1.201420 -0.134781
vt 0.375000 0.000000
vt 0.625000 0.000000
vt 0.625000 0.250000
vt 0.375000 0.250000
vt 0.625000 0.500000
vt 0.375000 0.500000
vt 0.625000 0.750000
vt 0.375000 0.750000
vt 0.625000 1.000000
vt 0.375000 1.000000
vt 0.125000 0.500000
vt 0.125000 0.750000
vt 0.875000 0.500000
vt 0.875000 0.750000
vn -1.0000 0.0000 0.0000
vn 0.0000 0.0000 -1.0000
vn 1.0000 0.0000 0.0000
vn 0.0000 0.0000 1.0000
vn 0.0000 -1.0000 0.0000
vn 0.0000 1.0000 0.0000
usemtl None
s off
f 57/77/55 58/78/55 60/79/55 59/80/55
f 59/80/56 60/79/56 64/81/56 63/82/56
f 63/82/57 64/81/57 62/83/57 61/84/57
f 61/84/58 62/83/58 58/85/58 57/86/58
f 59/87/59 63/82/59 61/84/59 57/88/59
f 64/81/60 60/89/60 58/90/60 62/83/60
