# Blender v2.82 (sub 7) OBJ File: 'tree1.blend'
# www.blender.org
mtllib tree2.mtl
o Cube_Cube.001
v -1.000000 -0.800000 1.000000
v 0.400000 -1.800000 0.400000
v -1.000000 -0.800000 -1.000000
v 0.400000 -1.800000 -0.400000
v 1.000000 -0.800000 1.000000
v 0.400000 -1.000000 0.400000
v 1.000000 -0.800000 -1.000000
v 0.400000 -1.000000 -0.400000
v -1.000000 4.200000 1.000000
v -1.000000 4.200000 -1.000000
v 1.000000 4.200000 -1.000000
v 1.000000 4.200000 1.000000
v -0.400000 -1.000000 -0.400000
v -0.400000 -1.800000 -0.400000
v -0.400000 -1.000000 0.400000
v -0.400000 -1.800000 0.400000
v -0.400000 -1.000000 -1.000000
v -0.400000 -1.000000 1.000000
v -0.400000 4.200000 -1.000000
v -0.400000 4.200000 1.000000
v 0.402812 -1.000000 1.000000
v 0.402812 4.200000 -1.000000
v 0.402813 -1.000000 -1.000000
v 0.402813 4.200000 1.000000
v -1.000000 -1.000000 0.400000
v 1.000000 -1.000000 0.400000
v -1.000000 4.200000 0.400000
v 1.000000 4.200000 0.400000
v -0.400000 4.400000 0.400000
v -0.400000 -1.000000 0.400000
v 0.402812 4.400000 0.400000
v 0.402812 -1.000000 0.400000
v 1.000000 -1.000000 -0.400625
v -1.000000 4.200000 -0.400625
v -1.000000 -1.000000 -0.400625
v 1.000000 4.200000 -0.400625
v -0.400000 4.400000 -0.400625
v -0.400000 -1.000000 -0.400625
v 0.402812 4.400000 -0.400625
v 0.402812 -1.000000 -0.400625
v -1.000000 2.200000 1.000000
v -1.000000 2.200000 -1.000000
v 1.000000 2.200000 -1.000000
v 1.000000 2.200000 1.000000
v -0.400000 2.200000 -1.200000
v -0.400000 2.200000 1.200000
v 0.402812 2.200000 -1.200000
v 0.402812 2.200000 1.200000
v -1.200000 2.200000 0.400000
v 1.200000 2.200000 0.400000
v -1.200000 2.200000 -0.400625
v 1.200000 2.200000 -0.400625
v -1.000000 1.198305 1.000000
v -1.000000 1.198305 -1.000000
v 1.000000 1.198305 -1.000000
v 1.000000 1.198305 1.000000
v -0.400000 1.198305 -1.200000
v -0.400000 1.198305 1.200000
v 0.402812 1.198305 -1.200000
v 0.402812 1.198305 1.200000
v -1.200000 1.198305 0.400000
v 1.200000 1.198305 0.400000
v -1.200000 1.198305 -0.400625
v 1.200000 1.198305 -0.400625
vt 0.375000 0.000000
vt 0.625000 0.000000
vt 0.625000 0.250000
vt 0.375000 0.250000
vt 0.525000 0.574922
vt 0.525000 0.500000
vt 0.625000 0.500000
vt 0.625000 0.574922
vt 0.459935 0.750000
vt 0.300352 0.750000
vt 0.375000 0.750000
vt 0.474915 0.750000
vt 0.375000 0.250000
vt 0.625000 0.250000
vt 0.625000 0.500000
vt 0.375000 0.500000
vt 0.300352 0.675000
vt 0.375000 0.675000
vt 0.625000 0.500000
vt 0.625000 0.750000
vt 0.375000 0.750000
vt 0.800000 0.675000
vt 0.875000 0.675000
vt 0.875000 0.750000
vt 0.800000 0.750000
vt 0.375000 0.750000
vt 0.625000 0.750000
vt 0.625000 1.000000
vt 0.375000 1.000000
vt 0.125000 0.500000
vt 0.375000 0.500000
vt 0.375000 0.750000
vt 0.125000 0.750000
vt 0.560000 0.500000
vt 0.575000 0.500000
vt 0.875000 0.500000
vt 0.800000 0.500000
vt 0.625000 0.500000
vt 0.875000 0.500000
vt 0.875000 0.750000
vt 0.625000 0.750000
vt 0.575000 0.675000
vt 0.575000 0.750000
vt 0.539930 0.500000
vt 0.699648 0.500000
vt 0.699648 0.675000
vt 0.699648 0.750000
vt 0.125000 0.675000
vt 0.200000 0.675000
vt 0.200000 0.750000
vt 0.125000 0.750000
vt 0.424746 0.750000
vt 0.439797 0.750000
vt 0.625000 0.675000
vt 0.625000 0.750000
vt 0.200000 0.574922
vt 0.300352 0.574922
vt 0.699648 0.574922
vt 0.125000 0.574922
vt 0.800000 0.574922
vt 0.575000 0.574922
vt 0.875000 0.574922
vt 0.375000 0.574922
vt 0.525000 0.750000
vt 0.525000 0.675000
vt 0.300352 0.500000
vt 0.375000 0.500000
vt 0.125000 0.500000
vt 0.200000 0.500000
vt 0.474915 0.675000
vt 0.474915 0.574922
vt 0.424746 0.500000
vt 0.424746 0.574922
vt 0.424746 0.675000
vt 0.560000 0.750000
vt 0.539930 0.750000
vt 0.474915 0.500000
vt 0.459935 0.500000
vt 0.439797 0.500000
vn 0.0000 0.0000 1.0000
vn 0.9852 0.0493 -0.1644
vn 0.1726 -0.0469 0.9839
vn 0.0000 -1.0000 0.0000
vn 0.1630 -0.9732 0.1622
vn -1.0000 0.0000 0.0000
vn -0.1622 0.9733 0.1622
vn 1.0000 0.0000 0.0000
vn 0.0000 0.0000 -1.0000
vn -0.1642 0.0493 -0.9852
vn 0.0000 1.0000 0.0000
vn -0.9852 0.0493 0.1642
vn 0.0000 0.0995 -0.9950
vn 0.0000 0.9487 0.3162
vn -0.1622 -0.9733 0.1622
vn -0.1718 -0.0469 0.9840
vn 0.1630 0.9732 0.1622
vn 0.1650 0.0493 -0.9851
vn 0.0000 -0.0906 0.9959
vn 0.3176 0.9482 0.0000
vn -0.9950 0.0995 0.0000
vn -0.3162 0.9487 0.0000
vn 0.9852 0.0493 0.1642
vn 0.1630 -0.9732 -0.1624
vn -0.1622 0.9733 -0.1624
vn -0.9852 0.0493 -0.1644
vn 0.0000 0.9486 -0.3165
vn -0.1622 -0.9733 -0.1624
vn 0.1630 0.9732 -0.1624
vn 0.9950 0.0995 0.0000
vn -0.9486 0.0000 -0.3165
vn 0.9487 0.0000 0.3162
vn 0.0000 0.0995 0.9950
vn 0.3176 0.0000 -0.9482
vn -0.1642 0.0493 0.9852
vn -0.9487 0.0000 0.3162
vn -0.3162 0.0000 -0.9487
vn 0.1650 0.0493 0.9851
vn 0.9486 0.0000 -0.3165
vn 0.9840 -0.0469 -0.1720
vn -0.1718 -0.0469 -0.9840
vn -0.9840 -0.0469 0.1718
vn 0.0000 -0.0906 -0.9959
vn 0.1726 -0.0469 -0.9839
vn -0.9959 -0.0906 0.0000
vn 0.9840 -0.0469 0.1718
vn -0.9840 -0.0469 -0.1720
vn 0.9959 -0.0906 0.0000
vn -0.3162 0.0000 0.9487
vn 0.3176 0.0000 0.9482
usemtl None
s off
f 13/1/1 14/2/1 4/3/1 8/4/1
f 52/5/2 43/6/2 11/7/2 36/8/2
f 60/9/3 21/10/3 5/11/3 56/12/3
f 6/13/4 15/14/4 13/15/4 8/16/4
f 32/17/5 26/18/5 5/11/5 21/10/5
f 8/16/6 4/19/6 2/20/6 6/21/6
f 29/22/7 27/23/7 9/24/7 20/25/7
f 15/26/8 16/27/8 14/28/8 13/29/8
f 6/30/9 2/31/9 16/32/9 15/33/9
f 45/34/10 42/35/10 10/36/10 19/37/10
f 16/38/11 2/39/11 4/40/11 14/41/11
f 49/42/12 41/43/12 9/24/12 27/23/12
f 47/44/13 45/34/13 19/37/13 22/45/13
f 31/46/14 29/22/14 20/25/14 24/47/14
f 25/48/15 30/49/15 18/50/15 1/51/15
f 53/52/16 1/51/16 18/50/16 58/53/16
f 28/54/17 31/46/17 24/47/17 12/55/17
f 43/6/18 47/44/18 22/45/18 11/7/18
f 30/49/4 32/17/4 21/10/4 18/50/4
f 58/53/19 18/50/19 21/10/19 60/9/19
f 38/56/4 40/57/4 32/17/4 30/49/4
f 36/8/20 39/58/20 31/46/20 28/54/20
f 35/59/4 38/56/4 30/49/4 25/48/4
f 39/58/11 37/60/11 29/22/11 31/46/11
f 51/61/21 49/42/21 27/23/21 34/62/21
f 37/60/22 34/62/22 27/23/22 29/22/22
f 40/57/4 33/63/4 26/18/4 32/17/4
f 44/64/23 50/65/23 28/54/23 12/55/23
f 23/66/24 7/67/24 33/63/24 40/57/24
f 19/37/25 10/36/25 34/62/25 37/60/25
f 42/35/26 51/61/26 34/62/26 10/36/26
f 22/45/27 19/37/27 37/60/27 39/58/27
f 3/68/28 17/69/28 38/56/28 35/59/28
f 11/7/29 22/45/29 39/58/29 36/8/29
f 17/69/4 23/66/4 40/57/4 38/56/4
f 50/65/30 52/5/30 36/8/30 28/54/30
f 62/70/8 64/71/8 52/5/8 50/65/8
f 54/72/31 63/73/31 51/61/31 42/35/31
f 56/12/32 62/70/32 50/65/32 44/64/32
f 63/73/6 61/74/6 49/42/6 51/61/6
f 20/25/33 46/75/33 48/76/33 24/47/33
f 55/77/34 59/78/34 47/44/34 43/6/34
f 9/24/35 41/43/35 46/75/35 20/25/35
f 59/78/9 57/79/9 45/34/9 47/44/9
f 61/74/36 53/52/36 41/43/36 49/42/36
f 57/79/37 54/72/37 42/35/37 45/34/37
f 24/47/38 48/76/38 44/64/38 12/55/38
f 64/71/39 55/77/39 43/6/39 52/5/39
f 33/63/40 7/67/40 55/77/40 64/71/40
f 17/69/41 3/68/41 54/72/41 57/79/41
f 25/48/42 1/51/42 53/52/42 61/74/42
f 23/66/43 17/69/43 57/79/43 59/78/43
f 7/67/44 23/66/44 59/78/44 55/77/44
f 35/59/45 25/48/45 61/74/45 63/73/45
f 5/11/46 26/18/46 62/70/46 56/12/46
f 3/68/47 35/59/47 63/73/47 54/72/47
f 26/18/48 33/63/48 64/71/48 62/70/48
f 46/75/1 58/53/1 60/9/1 48/76/1
f 41/43/49 53/52/49 58/53/49 46/75/49
f 48/76/50 60/9/50 56/12/50 44/64/50
